<svg width="45" height="45" viewBox="0 0 45 45" fill="none" xmlns="http://www.w3.org/2000/svg">
<path d="M17.8672 11.4009C19.2975 10.9063 20.7488 10.6356 22.2481 10.6158C26.0911 10.5651 29.4106 11.8596 32.2251 14.469C32.5104 14.7335 32.7679 15.0235 33.0392 15.3007C33.1445 15.4082 33.1456 15.4861 33.0346 15.591C32.8218 15.792 32.6135 15.9988 32.4163 16.2151C32.293 16.3503 32.2129 16.3533 32.087 16.2105C30.928 14.8967 29.5495 13.8733 27.9645 13.1286C26.5319 12.4555 25.0266 12.0661 23.4458 11.9588C20.6847 11.7715 18.1306 12.4112 15.7807 13.8651C14.7599 14.4967 13.8478 15.262 13.0482 16.1598C12.8464 16.3864 12.8422 16.3817 12.6324 16.1702C12.4416 15.9777 12.2549 15.7808 12.0561 15.597C11.9353 15.4852 11.9482 15.4065 12.054 15.2897C13.6631 13.5118 15.5907 12.2115 17.8672 11.4009Z" fill="#1F37B5"/>
<path d="M18.2478 26.9126C18.3031 26.7192 18.351 26.5426 18.4066 26.3684C18.4475 26.2404 18.4782 26.1205 18.3971 25.9923C18.3413 25.904 18.3588 25.7956 18.4272 25.7251C18.5433 25.6055 18.5437 25.4653 18.5433 25.3175C18.5409 24.4313 18.5495 23.5449 18.5331 22.659C18.5284 22.4085 18.5944 22.2838 18.844 22.199C20.029 21.7965 21.2069 21.373 22.3863 20.9544C22.4954 20.9157 22.5933 20.9151 22.7041 20.9544C24.1937 21.4833 25.6832 22.0128 27.1774 22.5287C27.3825 22.5995 27.403 22.7202 27.3936 22.8938C27.3843 23.0649 27.4221 23.223 27.1807 23.3058C25.6924 23.8162 24.2103 24.3444 22.7277 24.871C22.5946 24.9182 22.478 24.9134 22.3468 24.8665C21.265 24.4797 20.1812 24.0984 19.0982 23.7148C18.8372 23.6223 18.8214 23.6303 18.8202 23.8999C18.8178 24.3979 18.819 24.8959 18.8187 25.394C18.8187 25.4233 18.8075 25.4611 18.8215 25.4806C19.1003 25.8685 18.8478 26.3532 19.066 26.763C19.1957 27.0065 19.1486 27.0372 18.8584 27.0383C18.7046 27.0389 18.5508 27.0398 18.397 27.0363C18.3261 27.0347 18.241 27.0432 18.2478 26.9126Z" fill="#1F37B5"/>
<path d="M29.8688 17.1962C30.0855 17.4255 30.2883 17.6469 30.4975 17.862C30.5945 17.9617 30.5956 18.0386 30.4921 18.137C30.2745 18.3438 30.0592 18.5537 29.8568 18.775C29.7296 18.914 29.65 18.9034 29.5305 18.7618C28.5978 17.6571 27.4633 16.8213 26.1321 16.2585C24.7682 15.6819 23.3487 15.4438 21.867 15.5569C19.9224 15.7054 18.2049 16.405 16.6988 17.6349C16.284 17.9737 15.8999 18.3466 15.5635 18.7631C15.4327 18.925 15.3512 18.9117 15.2225 18.7711C15.0249 18.5553 14.8146 18.3506 14.6025 18.1489C14.4964 18.048 14.488 17.9727 14.5897 17.8568C16.2276 15.9896 18.2594 14.7831 20.7078 14.3785C24.1423 13.811 27.1697 14.7166 29.743 17.083C29.7807 17.1177 29.8193 17.1515 29.8688 17.1962Z" fill="white"/>
<path d="M19.4092 18.5714C20.5792 17.9692 21.813 17.7268 23.0992 17.8394C25.0505 18.0103 26.6349 18.8888 27.8553 20.4248C27.9699 20.569 27.9739 20.6686 27.8367 20.7949C27.6431 20.9732 27.4571 21.1609 27.2796 21.3553C27.161 21.4851 27.0864 21.4872 26.9746 21.3405C26.1786 20.2953 25.1373 19.6182 23.8648 19.2941C21.7761 18.7622 19.4718 19.5647 18.1639 21.279C18.1116 21.3475 18.0723 21.4301 17.9522 21.4908C17.762 21.3011 17.5597 21.1048 17.3635 20.9026C17.0139 20.5425 16.9605 20.6522 17.3423 20.2037C17.9186 19.5265 18.6062 18.9886 19.4092 18.5714Z" fill="#1F37B5"/>
<path d="M24.3719 26.7914C22.9713 27.9221 20.9022 27.5383 20.0363 25.9614C19.8176 25.563 19.712 25.1336 19.6803 24.6839C19.6748 24.6064 19.6583 24.5224 19.7192 24.4522C19.8039 24.4163 19.875 24.4669 19.9483 24.4926C20.7414 24.7709 21.5347 25.0487 22.3261 25.332C22.4714 25.384 22.6026 25.3861 22.7499 25.3333C23.5343 25.0517 24.3214 24.7781 25.1082 24.5032C25.1889 24.4751 25.2667 24.4267 25.4026 24.4552C25.426 25.3906 25.0894 26.1631 24.3719 26.7914Z" fill="white"/>
<path d="M15.2479 31.6306C14.9465 32.0931 14.5111 32.2868 13.9961 32.3095C13.5949 32.3271 13.1921 32.3079 12.7903 32.3164C12.6187 32.3201 12.5582 32.2554 12.5592 32.086C12.564 31.2893 12.564 30.4925 12.5579 29.6958C12.5566 29.5245 12.6189 29.4634 12.789 29.4671C13.1835 29.4756 13.5784 29.4643 13.973 29.4718C15.1537 29.4944 15.7885 30.5579 15.2479 31.6306ZM13.2873 30.1114C13.284 30.5869 13.2822 31.0623 13.2763 31.5378C13.2747 31.6663 13.3252 31.7272 13.4574 31.723C13.6401 31.7171 13.8241 31.7287 14.0058 31.7128C14.3413 31.6834 14.6135 31.4548 14.6953 31.1529C14.7935 30.7909 14.6867 30.3928 14.4178 30.2221C14.0736 30.0036 13.6932 29.9863 13.2873 30.1114Z" fill="#1F37B5"/>
<path d="M32.6809 32.0311C32.6808 31.2491 32.6866 30.4884 32.6769 29.7279C32.6743 29.5273 32.7394 29.4738 32.9379 29.4609C33.1806 29.4451 33.3291 29.5353 33.4715 29.7174C33.8268 30.1714 34.1985 30.6124 34.6141 31.049C34.6141 30.865 34.614 30.681 34.6142 30.497C34.6143 30.2191 34.6188 29.941 34.6132 29.6632C34.6104 29.5235 34.663 29.4668 34.8054 29.469C35.4043 29.4781 35.2954 29.3883 35.3006 29.9402C35.3073 30.6496 35.2959 31.3592 35.3055 32.0685C35.3082 32.2637 35.2409 32.3145 35.0526 32.3202C34.8272 32.3269 34.6752 32.2621 34.5329 32.0783C34.1757 31.6169 33.7936 31.1747 33.4016 30.7007C33.3511 30.8385 33.3712 30.9528 33.3701 31.0629C33.3666 31.392 33.3599 31.7215 33.3719 32.0502C33.3789 32.2438 33.3255 32.3443 33.1155 32.3151C33.0581 32.3071 32.9979 32.3075 32.9403 32.3147C32.7372 32.3402 32.655 32.251 32.6809 32.0311Z" fill="#1F37B5"/>
<path d="M31.3764 32.1762C30.5621 32.5525 29.6845 32.3422 29.2518 31.6779C28.6559 30.7629 29.2707 29.5175 30.3579 29.4275C30.9302 29.3801 31.442 29.5003 31.8207 29.9576C32.4063 30.6648 32.2042 31.6741 31.3764 32.1762ZM29.7624 31.0843C29.8734 31.5568 30.2953 31.8421 30.7419 31.7465C31.2112 31.6462 31.5156 31.2039 31.4259 30.7529C31.3225 30.2331 30.9015 29.9379 30.4036 30.0362C29.9484 30.1261 29.6733 30.5574 29.7624 31.0843Z" fill="#1F37B5"/>
<path d="M17.3928 32.3567C17.1821 32.3604 16.9929 32.3604 16.8058 32.3125C16.3009 32.1831 15.9743 31.7713 15.9499 31.1722C15.9293 30.6682 15.9469 30.1627 15.9427 29.6578C15.9415 29.5144 16.005 29.4691 16.1423 29.4673C16.6932 29.4599 16.6624 29.3522 16.661 29.963C16.6601 30.3654 16.6565 30.768 16.668 31.1701C16.6788 31.5463 16.8881 31.7537 17.2362 31.7585C17.5938 31.7634 17.8191 31.5518 17.83 31.1698C17.8433 30.7019 17.8443 30.2332 17.8349 29.7652C17.8307 29.5612 17.876 29.4376 18.1079 29.4602C18.1437 29.4637 18.1806 29.4529 18.2171 29.4509C18.5186 29.4339 18.5515 29.4582 18.5474 29.7559C18.5402 30.2674 18.5838 30.7803 18.5203 31.2904C18.4393 31.9399 18.0747 32.2879 17.3928 32.3567Z" fill="#1F37B5"/>
<path d="M10.4759 31.6059C10.4832 31.7615 10.5854 31.7341 10.6701 31.7341C11.0361 31.7342 11.4024 31.7436 11.7679 31.7297C12.0356 31.7195 12.0032 31.8896 12.0129 32.0618C12.0234 32.2493 11.9636 32.3216 11.7657 32.3178C11.1877 32.3068 10.6092 32.3069 10.0311 32.3175C9.83455 32.3211 9.78098 32.25 9.78292 32.062C9.79101 31.2789 9.79002 30.4956 9.78303 29.7125C9.78147 29.5378 9.82877 29.4652 10.0163 29.4666C10.6016 29.471 11.187 29.46 11.7724 29.4535C11.8948 29.4522 11.9701 29.4935 11.963 29.6305C11.9597 29.6962 11.9594 29.7625 11.9638 29.8281C11.9741 29.9796 11.9053 30.035 11.7553 30.0319C11.4261 30.0251 11.0966 30.0296 10.7672 30.0302C10.4749 30.0309 10.4921 30.0326 10.4708 30.3221C10.452 30.5776 10.5875 30.5893 10.7771 30.5831C11.0403 30.5746 11.3044 30.5895 11.5674 30.5791C11.7888 30.5704 11.7908 30.7049 11.7904 30.8642C11.7901 31.0208 11.7957 31.1616 11.573 31.155C11.3098 31.1472 11.0461 31.1534 10.7826 31.1545C10.4765 31.1559 10.4765 31.1564 10.4756 31.4564C10.4755 31.5003 10.4755 31.5443 10.4759 31.6059Z" fill="#1F37B5"/>
<path d="M24.991 32.2329C24.7923 32.384 24.5707 32.3143 24.3634 32.2967C24.2247 32.2849 24.2079 32.1103 24.1767 31.999C24.1131 31.7723 23.9785 31.7058 23.7553 31.7202C23.4929 31.737 23.2286 31.7273 22.9652 31.7234C22.8386 31.7215 22.768 31.7746 22.7149 31.8909C22.5023 32.3565 22.4111 32.3963 21.8806 32.2862C21.8437 32.226 21.8795 32.1745 21.9026 32.1225C22.2738 31.2868 22.6498 30.4532 23.0131 29.6141C23.0796 29.4604 23.1912 29.4689 23.3134 29.459C23.7454 29.4241 23.7486 29.422 23.9215 29.8087C24.2796 30.6099 24.6339 31.4129 24.991 32.2329ZM23.3757 30.3213C23.2687 30.5868 23.1276 30.8404 23.0632 31.1476C23.3185 31.1617 23.545 31.1778 23.7912 31.1368C23.703 30.8311 23.5793 30.5693 23.4606 30.3059C23.4473 30.2765 23.4169 30.2706 23.3757 30.3213Z" fill="#1F37B5"/>
<path d="M19.2901 30.0635C19.8142 29.3755 20.801 29.2023 21.4994 29.67C21.6032 29.7395 21.779 29.8179 21.7285 29.9532C21.6698 30.1101 21.5122 30.2273 21.3551 30.3093C21.2855 30.3456 21.2413 30.2608 21.1916 30.2226C20.8719 29.9777 20.447 29.9535 20.1241 30.1641C19.8374 30.351 19.7015 30.7369 19.789 31.1158C19.929 31.7225 20.6518 31.9567 21.1751 31.5671C21.239 31.5195 21.2961 31.3957 21.3918 31.477C21.5181 31.5843 21.6711 31.6728 21.7443 31.8301C21.7719 31.8894 21.7045 31.9342 21.6649 31.9753C21.3061 32.3476 20.5206 32.4764 19.9735 32.2539C19.4064 32.0231 19.0678 31.537 19.055 30.9541C19.0481 30.6381 19.1032 30.3428 19.2901 30.0635Z" fill="#1F37B5"/>
<path d="M26.1902 32.3142C26.1398 32.3142 26.11 32.3107 26.0813 32.3148C25.8624 32.3461 25.7849 32.2579 25.7902 32.0334C25.8035 31.4703 25.7951 30.9067 25.7944 30.3432C25.7941 30.0378 25.7897 30.0341 25.4918 30.0326C25.4113 30.0323 25.3308 30.0325 25.2503 30.0324C24.9169 30.032 24.822 29.9006 24.9094 29.5741C24.9352 29.478 25.0009 29.4712 25.0757 29.4703C25.7779 29.4624 26.4801 29.4572 27.1823 29.4466C27.3425 29.4441 27.3989 29.5078 27.3961 29.6688C27.3885 30.1093 27.4166 30.0271 27.034 30.0324C26.4269 30.0408 26.5171 29.9545 26.5116 30.5564C26.5072 31.0394 26.5107 31.5223 26.5099 32.0053C26.5094 32.3097 26.5088 32.3097 26.1902 32.3142Z" fill="#1F37B5"/>
<path d="M28.4907 29.9721C28.4905 30.6812 28.4838 31.3686 28.4941 32.0558C28.4972 32.2583 28.4314 32.3232 28.2308 32.3181C27.7317 32.3053 27.805 32.3443 27.8025 31.8983C27.7984 31.1744 27.807 30.4504 27.7955 29.7267C27.7923 29.5286 27.8569 29.4572 28.0514 29.4486C28.4908 29.4289 28.4905 29.4219 28.4907 29.9721Z" fill="#1F37B5"/>
<path d="M22.0733 33.1417C22.2503 33.1007 22.2989 33.1765 22.2963 33.3252C22.2909 33.6318 22.2967 33.9386 22.2935 34.2452C22.2927 34.3203 22.3224 34.4176 22.2194 34.4524C22.1143 34.488 22.0379 34.4305 21.9738 34.3521C21.8214 34.1655 21.6687 33.9792 21.5151 33.7935C21.4934 33.7673 21.4777 33.7297 21.4043 33.7353C21.4043 33.9045 21.4056 34.0766 21.4039 34.2487C21.4029 34.353 21.4062 34.4601 21.2535 34.4631C21.1023 34.4661 21.0956 34.3642 21.0952 34.2567C21.0939 33.9574 21.0919 33.658 21.0951 33.3586C21.096 33.2756 21.0731 33.171 21.1828 33.1343C21.2974 33.0959 21.3758 33.1616 21.4444 33.2467C21.6132 33.4562 21.7845 33.6636 21.9735 33.8948C22.0591 33.6318 21.9404 33.3766 22.0733 33.1417Z" fill="#1F37B5"/>
<path d="M29.3669 33.5047C29.3834 33.6898 29.3685 33.8472 29.2248 33.9605C29.137 34.0298 29.1708 34.0951 29.22 34.1684C29.275 34.2501 29.3563 34.3198 29.3692 34.434C29.217 34.4938 29.1045 34.4706 29.0192 34.3383C28.9797 34.277 28.9358 34.2178 28.8883 34.1625C28.8194 34.0822 28.7242 34.0666 28.6276 34.0856C28.5168 34.1074 28.539 34.2042 28.5366 34.2813C28.5337 34.3749 28.5284 34.4595 28.4014 34.4609C28.267 34.4624 28.2482 34.3765 28.2483 34.2718C28.2488 33.9501 28.2509 33.6284 28.2483 33.3068C28.2473 33.1776 28.303 33.1171 28.4327 33.1231C28.6218 33.1319 28.8123 33.1017 29.0002 33.1501C29.1832 33.1973 29.3199 33.2909 29.3669 33.5047ZM28.6149 33.381C28.4805 33.5069 28.4942 33.6841 28.5808 33.7883C28.6645 33.889 28.8392 33.8505 28.9683 33.7925C29.0461 33.7576 29.0809 33.6839 29.0785 33.5951C29.0761 33.5038 29.0277 33.4485 28.9488 33.4114C28.8526 33.3663 28.7513 33.3695 28.6149 33.381Z" fill="#1F37B5"/>
<path d="M25.0448 33.7503C25.0453 33.5824 25.0455 33.4363 25.0463 33.2903C25.0468 33.1883 25.0836 33.1231 25.2001 33.1246C25.304 33.1259 25.3405 33.1854 25.3485 33.276C25.3511 33.3051 25.3516 33.3343 25.3529 33.3635C25.3661 33.6515 25.3661 33.6515 25.6506 33.6509C25.9457 33.6503 25.9464 33.6503 25.9576 33.3354C25.9614 33.2302 25.9542 33.122 26.1098 33.1269C26.2498 33.1312 26.2481 33.2301 26.2483 33.3277C26.2487 33.649 26.2475 33.9704 26.248 34.2917C26.2482 34.3918 26.2221 34.4622 26.1018 34.4615C25.9798 34.4607 25.9647 34.3857 25.9579 34.2883C25.93 33.8879 25.9283 33.8876 25.5254 33.9011C25.4754 33.9028 25.4256 33.9109 25.3772 33.9159C25.3191 34.0209 25.3668 34.1245 25.3532 34.2233C25.3389 34.3274 25.3681 34.4581 25.2005 34.4622C25.0313 34.4662 25.0468 34.3407 25.045 34.2322C25.0424 34.0789 25.0446 33.9255 25.0448 33.7503Z" fill="#1F37B5"/>
<path d="M17.5216 33.9664C17.5996 34.1253 17.7181 34.2007 17.8742 34.2167C18.0454 34.2343 18.1621 34.1886 18.1515 33.9824C18.1473 33.8989 18.1356 33.7989 18.2452 33.7607C18.2947 33.7434 18.3478 33.7469 18.3898 33.7838C18.4667 33.8515 18.4437 34.3036 18.3511 34.3586C18.1115 34.501 17.8544 34.5287 17.5957 34.418C17.3265 34.3028 17.1898 34.0801 17.1869 33.7966C17.1842 33.5317 17.3041 33.3138 17.5516 33.1926C17.8037 33.0692 18.0601 33.0781 18.3078 33.2101C18.3752 33.246 18.4683 33.2901 18.404 33.3921C18.3552 33.4697 18.2867 33.5197 18.1845 33.4525C18.0082 33.3367 17.824 33.3346 17.6519 33.4573C17.4783 33.5812 17.4706 33.761 17.5216 33.9664Z" fill="#1F37B5"/>
<path d="M30.4911 33.6534C30.562 33.6567 30.6145 33.6536 30.6635 33.665C30.7344 33.6816 30.7446 33.741 30.7396 33.8034C30.7348 33.8648 30.6973 33.8944 30.6384 33.8956C30.5214 33.8981 30.4044 33.9013 30.2875 33.8985C30.1658 33.8956 30.119 33.9509 30.1191 34.0714C30.1191 34.1919 30.1807 34.2206 30.2846 34.219C30.4308 34.2166 30.5771 34.2193 30.7233 34.2216C30.798 34.2228 30.8509 34.2526 30.8519 34.3371C30.853 34.4185 30.8074 34.4605 30.7307 34.4611C30.4748 34.4633 30.2189 34.464 29.9631 34.4603C29.858 34.4588 29.8323 34.3812 29.8322 34.2931C29.8316 33.9567 29.8329 33.6204 29.8328 33.284C29.8327 33.1751 29.8861 33.1235 29.9944 33.124C30.2211 33.125 30.4477 33.1236 30.6744 33.1255C30.7563 33.1262 30.8172 33.1558 30.8153 33.2535C30.8133 33.3551 30.7445 33.3688 30.6658 33.3696C30.5415 33.3709 30.4171 33.3727 30.2929 33.3713C30.1924 33.3702 30.1218 33.3953 30.1206 33.5157C30.1193 33.6427 30.2002 33.6548 30.2956 33.6539C30.3541 33.6534 30.4126 33.6537 30.4911 33.6534Z" fill="#1F37B5"/>
<path d="M15.8822 34.2464C15.8214 34.4213 15.7341 34.5164 15.5505 34.4371C15.512 34.3299 15.5834 34.2526 15.6194 34.1698C15.7473 33.8756 15.8817 33.5843 16.0125 33.2914C16.0524 33.2021 16.0921 33.1234 16.2129 33.1221C16.328 33.1209 16.3841 33.1804 16.4261 33.2746C16.5942 33.6519 16.7643 34.0283 16.9387 34.4162C16.7824 34.4825 16.6605 34.5031 16.6069 34.3438C16.5498 34.1744 16.4322 34.1438 16.2823 34.1633C16.1507 34.1804 16.0027 34.1055 15.8822 34.2464ZM16.328 33.7004C16.2912 33.6441 16.2925 33.5591 16.1933 33.531C16.1588 33.6534 16.0583 33.7491 16.0748 33.8903C16.1803 33.9307 16.2768 33.9286 16.3724 33.8985C16.3964 33.8305 16.3521 33.7831 16.328 33.7004Z" fill="#1F37B5"/>
<path d="M23.4289 33.3718C23.3574 33.3724 23.3063 33.3732 23.2552 33.3735C23.1616 33.374 23.129 33.4256 23.129 33.5137C23.1291 33.6033 23.1667 33.651 23.2582 33.6518C23.375 33.6528 23.4918 33.6526 23.6086 33.6553C23.6957 33.6573 23.7437 33.6988 23.7402 33.7917C23.7368 33.8795 23.6825 33.9001 23.6082 33.8997C23.506 33.8992 23.4036 33.9027 23.3015 33.8989C23.1855 33.8944 23.127 33.9343 23.127 34.0619C23.127 34.1939 23.1948 34.2222 23.3065 34.2196C23.4451 34.2164 23.5839 34.2202 23.7226 34.2204C23.8019 34.2206 23.848 34.2573 23.8465 34.3386C23.845 34.4161 23.8038 34.4619 23.724 34.4622C23.4758 34.4631 23.2276 34.463 22.9794 34.4617C22.8779 34.4611 22.8387 34.4015 22.8389 34.306C22.8395 33.9629 22.8402 33.6197 22.8388 33.2765C22.8383 33.1619 22.9004 33.1232 23.0044 33.1236C23.2234 33.1245 23.4425 33.1231 23.6615 33.1242C23.7488 33.1246 23.8252 33.1432 23.821 33.2557C23.8174 33.3559 23.7467 33.3689 23.6683 33.3701C23.5953 33.3711 23.5223 33.3712 23.4289 33.3718Z" fill="#1F37B5"/>
<path d="M27.7024 33.139C27.8188 33.2893 27.7757 33.3639 27.6077 33.37C27.4835 33.3745 27.359 33.373 27.2346 33.3713C27.1399 33.37 27.0807 33.4002 27.0801 33.5078C27.0796 33.6102 27.1272 33.6542 27.2266 33.6536C27.3363 33.6529 27.4461 33.6533 27.5557 33.6569C27.6277 33.6592 27.6857 33.6853 27.6895 33.7699C27.6939 33.8672 27.6334 33.8959 27.5498 33.897C27.4474 33.8983 27.345 33.9009 27.2426 33.8984C27.1364 33.8958 27.0801 33.9341 27.078 34.0501C27.0759 34.1721 27.1251 34.224 27.2469 34.2195C27.3711 34.215 27.4956 34.2179 27.6199 34.2196C27.7046 34.2206 27.7872 34.229 27.7836 34.345C27.7801 34.46 27.6952 34.4639 27.6123 34.4643C27.4002 34.4655 27.188 34.4618 26.9759 34.4654C26.8484 34.4676 26.7887 34.4178 26.7905 34.2845C26.7947 33.9627 26.7952 33.6407 26.79 33.3189C26.7877 33.1796 26.8408 33.1181 26.9826 33.1225C27.2164 33.1298 27.4504 33.1291 27.7024 33.139Z" fill="#1F37B5"/>
<path d="M15.241 33.3688C15.0132 33.339 14.9333 33.4237 14.9508 33.6372C14.9674 33.8402 14.9549 34.0457 14.9532 34.2502C14.9523 34.3534 14.9613 34.4654 14.8043 34.4609C14.6476 34.4563 14.6651 34.3411 14.6641 34.2405C14.662 34.0288 14.6563 33.8168 14.6654 33.6054C14.6723 33.4448 14.6324 33.353 14.4486 33.3683C14.3595 33.3758 14.2386 33.3928 14.2378 33.2482C14.2369 33.1037 14.3567 33.1254 14.4473 33.1244C14.7028 33.1214 14.9583 33.123 15.2138 33.1242C15.2814 33.1245 15.3506 33.1321 15.3675 33.2151C15.3847 33.3003 15.3546 33.3583 15.241 33.3688Z" fill="#1F37B5"/>
<path d="M17.986 22.5112C18.0925 22.4834 18.172 22.4188 18.3 22.4376C18.3513 22.7533 18.3314 23.0721 18.3069 23.439C18.0833 23.3154 17.7814 23.3903 17.7073 23.1162C17.6074 22.747 17.6885 22.6156 17.986 22.5112Z" fill="#1F37B5"/>
<path d="M19.7193 34.4653C19.5012 34.4653 19.3036 34.463 19.1061 34.4653C18.9865 34.4667 18.9319 34.4112 18.9322 34.2932C18.9333 33.9567 18.9326 33.6202 18.9332 33.2836C18.9333 33.1918 18.9645 33.1288 19.0712 33.1262C19.1903 33.1234 19.2199 33.191 19.2193 33.2934C19.2179 33.5276 19.2276 33.7621 19.2168 33.9957C19.2088 34.1718 19.2804 34.234 19.449 34.2185C19.5432 34.2099 19.639 34.2172 19.7341 34.218C19.8182 34.2187 19.904 34.223 19.9051 34.3372C19.9062 34.447 19.8274 34.4642 19.7193 34.4653Z" fill="#1F37B5"/>
<path d="M20.287 34.1415C20.2868 33.8581 20.286 33.5963 20.2868 33.3345C20.2872 33.2311 20.2794 33.1212 20.4365 33.1272C20.5745 33.1325 20.5754 33.2296 20.5756 33.3273C20.5765 33.6327 20.5775 33.9382 20.5758 34.2436C20.5752 34.3438 20.5903 34.4584 20.434 34.4612C20.2778 34.464 20.2889 34.3533 20.2872 34.2503C20.2868 34.2212 20.287 34.1921 20.287 34.1415Z" fill="#1F37B5"/>
</svg>
